<svg xmlns="http://www.w3.org/2000/svg" viewBox="0 0 60 60"><defs><style>.cls-1{fill:#f0edee;}</style></defs><g id="Capa_2" data-name="Capa 2"><g id="Prototipo"><g id="Desktop"><g id="Home"><g id="header"><path id="Logo" class="cls-1" d="M9.56,57.31h8.91v-8.9H9.56ZM2.1,41v7.45H9.56V41ZM58.5,20.43A29,29,0,0,0,39.56,1.49,30.1,30.1,0,0,0,0,30H11.59A18.47,18.47,0,0,1,36.76,12.85,17.33,17.33,0,0,1,47.14,23.21,18.44,18.44,0,0,1,30,48.37v0h0V60A30.08,30.08,0,0,0,58.5,20.43ZM30,48.37V36.85H18.47V48.41H30v0Z"/></g></g></g></g></g></svg>